Coordinates
version=1
nRows=17
nColumns=24
inDegrees=yes

Units are S.I. units (second, meters, Newtons, ...)
Angles are in degrees.

endheader
time	pelvis_tilt	pelvis_list	pelvis_rotation	pelvis_tx	pelvis_ty	pelvis_tz	hip_flexion_r	hip_adduction_r	hip_rotation_r	knee_angle_r	ankle_angle_r	subtalar_angle_r	mtp_angle_r	hip_flexion_l	hip_adduction_l	hip_rotation_l	knee_angle_l	ankle_angle_l	subtalar_angle_l	mtp_angle_l	lumbar_extension	lumbar_bending	lumbar_rotation
      4.85500000	    -15.91687011	      5.08209271	     -2.96854275	     -1.04809310	     -0.01088812	     -0.31097936	     34.66447828	     -6.50482499	     -2.98766765	    -62.25823733	     -5.65598801	    -12.53040777	     20.98272839	     22.27708196	      6.51117057	     -9.60492922	    -17.75187321	      4.92600023	     -2.34780945	      5.23405571	     18.08742916	     -7.84930210	    -10.64948269
      4.86000000	    -15.90201251	      4.75137461	     -2.71413234	     -1.04222475	     -0.01026552	     -0.31149734	     35.13820746	     -6.27710651	     -3.50409706	    -61.52054957	     -4.97818213	    -12.42434325	     20.92824209	     21.58551781	      6.36502479	     -9.22366795	    -17.32545940	      5.08991557	     -2.24463993	      5.10838579	     18.03319734	     -7.62772715	    -11.09524856
      4.86500000	    -15.87105070	      4.43988160	     -2.44601087	     -1.03637914	     -0.00969940	     -0.31201531	     35.58184130	     -6.09050680	     -4.05312783	    -60.72857153	     -4.37007402	    -12.38414981	     20.77853648	     20.87671358	      6.23709135	     -8.80385300	    -16.89386313	      5.26481816	     -2.12647801	      4.93761924	     17.96148060	     -7.43453229	    -11.54998709
      4.87000000	    -15.92113850	      4.13556437	     -2.26116891	     -1.03053609	     -0.00930036	     -0.31240997	     36.11532264	     -5.85253110	     -4.51573166	    -59.88024315	     -3.78843796	    -12.28497152	     20.65754341	     20.26698987	      6.06458291	     -8.51412886	    -16.47581710	      5.46227424	     -2.01916253	      4.85158920	     17.99394932	     -7.21631250	    -11.88225756
      4.87500000	    -15.91666923	      3.81661287	     -1.96789631	     -1.02474024	     -0.00886465	     -0.31295782	     36.53620417	     -5.69100326	     -5.12126076	    -58.94742265	     -3.25590215	    -12.28764013	     20.41790919	     19.62016154	      5.91231553	     -8.16021340	    -16.08666260	      5.60819809	     -1.88791878	      4.71570436	     17.94021724	     -7.01552379	    -12.37396166
      4.88000000	    -15.89627217	      3.54330461	     -1.72091473	     -1.01892961	     -0.00850579	     -0.31340827	     36.94692879	     -5.55154026	     -5.68433938	    -57.98637713	     -2.79508279	    -12.30847313	     20.04112010	     18.93371274	      5.78461637	     -7.79096833	    -15.65565667	      5.78498524	     -1.74287787	      4.54775841	     17.88485261	     -6.85406740	    -12.79571565
      4.88500000	    -15.91049967	      3.27341795	     -1.49865666	     -1.01313399	     -0.00825030	     -0.31381805	     37.37861075	     -5.40387074	     -6.23388791	    -56.96792901	     -2.34768054	    -12.29394010	     19.62471140	     18.29962580	      5.63765357	     -7.49622448	    -15.24512201	      5.96988757	     -1.59083250	      4.41507205	     17.87011263	     -6.68397237	    -13.17180767
      4.89000000	    -15.93188280	      3.01764485	     -1.29267251	     -1.00734846	     -0.00806746	     -0.31420319	     37.80405352	     -5.26555223	     -6.77486611	    -55.89864417	     -1.93608813	    -12.27728855	     19.18989454	     17.67587461	      5.49112857	     -7.23767134	    -14.83152151	      6.14820664	     -1.43182845	      4.31675552	     17.86366003	     -6.52103577	    -13.52977016
      4.89500000	    -15.97188834	      2.77052295	     -1.11453148	     -1.00157526	     -0.00796717	     -0.31453639	     38.23038053	     -5.11831227	     -7.29270079	    -54.76746094	     -1.53298845	    -12.24031529	     18.80894838	     17.08499898	      5.33473673	     -7.04929566	    -14.43395694	      6.31917215	     -1.29345401	      4.25633775	     17.87968502	     -6.35972306	    -13.85148508
      4.90000000	    -15.99282616	      2.54029882	     -0.93197230	     -0.99578675	     -0.00790358	     -0.31487425	     38.61595020	     -4.99837811	     -7.82299419	    -53.59031016	     -1.17447369	    -12.19724357	     18.38737949	     16.46319473	      5.19225585	     -6.84618105	    -14.01590285	      6.49174832	     -1.11508052	      4.21739333	     17.87866586	     -6.21073600	    -14.17616611
      4.90500000	    -15.97133862	      2.33945803	     -0.75727343	     -0.99000604	     -0.00787466	     -0.31514338	     38.94931230	     -4.90861192	     -8.36368501	    -52.39387358	     -0.85159744	    -12.13059677	     17.81255861	     15.78467943	      5.06797641	     -6.63322766	    -13.57611097	      6.67687398	     -0.89336567	      4.19471848	     17.82811504	     -6.10281155	    -14.48302671
      4.91000000	    -16.07414923	      2.17082031	     -0.69623301	     -0.98421703	     -0.00807301	     -0.31531049	     39.41977219	     -4.76018933	     -8.74711188	    -51.14397221	     -0.50561944	    -11.98344418	     17.58422159	     15.24897539	      4.94398928	     -6.56360683	    -13.14993855	      6.85887999	     -0.78448684	      4.18733271	     17.93018146	     -5.97389686	    -14.64271532
      4.91500000	    -16.04824257	      1.95123479	     -0.49014908	     -0.97844863	     -0.00809059	     -0.31558138	     39.67476814	     -4.67149933	     -9.33212056	    -49.80782039	     -0.22350130	    -11.85458453	     17.14952030	     14.59860779	      4.79058620	     -6.42438287	    -12.75926068	      7.00338752	     -0.52292948	      4.21215714	     17.86935836	     -5.85971769	    -15.01008931
      4.92000000	    -16.04613548	      1.77378654	     -0.38249038	     -0.97264739	     -0.00824234	     -0.31575300	     39.96322553	     -4.55238876	     -9.80078583	    -48.45507696	      0.06193639	    -11.63757226	     16.73852871	     13.95304653	      4.65577741	     -6.34223382	    -12.33697161	      7.17249027	     -0.31336462	      4.24026492	     17.85150579	     -5.74286377	    -15.24283431
      4.92500000	    -16.16672615	      1.68124895	     -0.37612636	     -0.96685937	     -0.00864322	     -0.31576745	     40.41552879	     -4.43217064	    -10.12155717	    -47.10445035	      0.31271682	    -11.40652992	     16.59957167	     13.42981613	      4.58297622	     -6.30379975	    -11.89932533	      7.32501296	     -0.19158869	      4.24090344	     17.97755078	     -5.68077454	    -15.30008862
      4.93000000	    -16.08131627	      1.46520951	     -0.20226859	     -0.96105472	     -0.00878181	     -0.31594035	     40.53451359	     -4.31597010	    -10.68522024	    -45.64150779	      0.57253844	    -11.11790186	     16.22137755	     12.72080750	      4.40556176	     -6.22686377	    -11.52205680	      7.51842169	      0.11882496	      4.31148325	     17.84921485	     -5.55939918	    -15.62820601
      4.93500000	    -16.11047439	      1.32481142	     -0.14842695	     -0.95523221	     -0.00917137	     -0.31599370	     40.80376762	     -4.17641213	    -11.07937546	    -44.18401314	      0.83272981	    -10.77305985	     15.99034462	     12.12433538	      4.28529138	     -6.24127558	    -11.13022935	      7.70652695	      0.30125484	      4.34831391	     17.86626664	     -5.46305263	    -15.81792381
